<?xml version="1.0" ?><!DOCTYPE svg  PUBLIC '-//W3C//DTD SVG 1.1//EN'  'http://www.w3.org/Graphics/SVG/1.1/DTD/svg11.dtd'><svg height="512px" style="shape-rendering:geometricPrecision; text-rendering:geometricPrecision; image-rendering:optimizeQuality; fill-rule:evenodd; clip-rule:evenodd" version="1.1" viewBox="0 0 512 512" width="512px" xml:space="preserve" xmlns="http://www.w3.org/2000/svg" xmlns:xlink="http://www.w3.org/1999/xlink" xmlns:xodm="http://www.corel.com/coreldraw/odm/2003"><defs><style type="text/css">
   <![CDATA[
    .fil1 {fill:white}
    .fil0 {fill:url(#id0)}
   ]]>
  </style><linearGradient gradientUnits="userSpaceOnUse" id="id0" x1="67.83" x2="474.19" y1="82.42" y2="389.98"><stop offset="0" style="stop-opacity:1; stop-color:#1E1B1E"/><stop offset="1" style="stop-opacity:1; stop-color:#474747"/></linearGradient></defs><g id="Layer_x0020_1"><g id="_1726073421728"><path class="fil0" d="M256 0c141.39,0 256,114.61 256,256 0,141.39 -114.61,256 -256,256 -141.39,0 -256,-114.61 -256,-256 0,-141.39 114.61,-256 256,-256z"/><path class="fil1" d="M180.8 159.38c53.36,0 96.62,43.26 96.62,96.62 0,53.36 -43.26,96.62 -96.62,96.62 -53.35,0 -96.61,-43.26 -96.61,-96.62 0,-53.36 43.26,-96.62 96.61,-96.62zm229.98 15.26c9.41,0 17.03,36.43 17.03,81.36 0,44.93 -7.62,81.36 -17.03,81.36 -9.4,0 -17.03,-36.43 -17.03,-81.36 0,-44.93 7.63,-81.36 17.03,-81.36zm-75.38 -7.63c27,0 48.88,39.84 48.88,88.99 0,49.15 -21.88,88.99 -48.88,88.99 -27,0 -48.89,-39.84 -48.89,-88.99 0,-49.15 21.89,-88.99 48.89,-88.99z"/></g></g></svg>